<svg xmlns="http://www.w3.org/2000/svg" viewBox="0 0 500 500"><g id="freepik--background-complete--inject-272"><path d="M319.32,250.71l-123-1.16L159,249.37l-10.14,0-2.64,0a6.3,6.3,0,0,0-.9,0,5.27,5.27,0,0,0,.9.06l2.64.06,10.13.13,37.29.19,123,.08c48,0,91.51.06,123,.29,15.74.11,28.48.26,37.28.42,4.4.09,7.82.17,10.14.26a19.82,19.82,0,0,1,3.53.26,17.69,17.69,0,0,1-3.53.23c-2.32.07-5.74.12-10.14.16-8.81.08-21.55.1-37.29,0C410.82,251.58,367.34,251.2,319.32,250.71Z" style="fill:#f5f5f5"></path><path d="M318.36,261.37,197,241.42l-36.8-5.87-10-1.53-2.61-.36a5,5,0,0,0-.89-.09,4.49,4.49,0,0,0,.87.2l2.6.46,10,1.68L197,241.8l121.53,18.87c47.44,7.33,90.39,14,121.45,19.06,15.53,2.52,28.09,4.61,36.76,6.12,4.33.76,7.7,1.37,10,1.81a19.13,19.13,0,0,1,3.45.8,17.91,17.91,0,0,1-3.53-.31c-2.3-.29-5.69-.76-10-1.39-8.71-1.27-21.3-3.19-36.84-5.64C408.62,276.22,365.72,269.2,318.36,261.37Z" style="fill:#f5f5f5"></path><path d="M315.72,271.75l-116.64-38.5-35.4-11.49L154,218.7l-2.52-.76a5.34,5.34,0,0,0-.87-.23,4.61,4.61,0,0,0,.83.33l2.49.87,9.6,3.2L199,233.63l117,37.44c45.67,14.58,87,27.85,116.88,37.63,14.93,4.89,27,8.9,35.32,11.74,4.16,1.41,7.38,2.54,9.56,3.33A17.57,17.57,0,0,1,481,325.1a18.69,18.69,0,0,1-3.43-.85c-2.23-.65-5.5-1.63-9.7-2.93-8.4-2.6-20.52-6.45-35.47-11.28C402.47,300.39,361.23,286.82,315.72,271.75Z" style="fill:#f5f5f5"></path><path d="M311.45,281.58l-109-56.06L169.3,208.69c-3.91-1.94-7-3.46-9-4.51L157.89,203a4.29,4.29,0,0,0-.82-.36,4.67,4.67,0,0,0,.77.45l2.32,1.24,9,4.65,33.11,16.85L311.78,281c42.77,21.47,81.47,41,109.4,55.25,14,7.14,25.24,13,33,17.05,3.88,2.05,6.88,3.65,8.9,4.77a18.8,18.8,0,0,1,3,1.82,19.45,19.45,0,0,1-3.26-1.38c-2.09-1-5.16-2.46-9.1-4.39-7.88-3.87-19.23-9.55-33.23-16.63C392.54,323.28,354,303.5,311.45,281.58Z" style="fill:#f5f5f5"></path><path d="M305.66,290.64l-98.77-72.13-30-21.72L168.64,191l-2.16-1.5a4.7,4.7,0,0,0-.75-.47,5.29,5.29,0,0,0,.69.56l2.09,1.58,8.12,6,30,21.73,99.44,71.24c38.83,27.78,74,53,99.27,71.38,12.66,9.2,22.88,16.69,29.89,21.92,3.51,2.61,6.22,4.66,8,6.08a18.26,18.26,0,0,1,2.7,2.26,19.56,19.56,0,0,1-3-1.86c-1.91-1.29-4.71-3.23-8.29-5.74-7.17-5-17.48-12.39-30.18-21.53C379.12,344.28,344.19,318.82,305.66,290.64Z" style="fill:#f5f5f5"></path><path d="M298.51,298.69l-86.16-86.35-26.24-26.05-7.19-7-1.89-1.8a4.41,4.41,0,0,0-.67-.59,6.13,6.13,0,0,0,.59.66l1.82,1.88,7.08,7.14,26.22,26.06,87,85.58c34,33.38,64.67,63.65,86.77,85.69,11.05,11,19.95,20,26.06,26.22,3.05,3.12,5.4,5.56,7,7.24a18.81,18.81,0,0,1,2.31,2.64,17.81,17.81,0,0,1-2.67-2.3c-1.69-1.56-4.14-3.9-7.28-6.93-6.29-6.07-15.31-14.91-26.41-25.88C362.59,362.92,332.12,332.42,298.51,298.69Z" style="fill:#f5f5f5"></path><path d="M290.18,305.55l-71.45-98.48-21.81-29.74c-2.58-3.47-4.6-6.17-6-8l-1.59-2.07a4.66,4.66,0,0,0-.57-.69,6.11,6.11,0,0,0,.48.75c.36.51.86,1.21,1.5,2.13l5.86,8.13,21.79,29.76,72.36,97.84c28.27,38.16,53.82,72.76,72.16,97.92,9.17,12.58,16.55,22.79,21.59,29.88,2.52,3.55,4.46,6.32,5.75,8.22a18,18,0,0,1,1.86,3,18.4,18.4,0,0,1-2.27-2.67c-1.42-1.81-3.47-4.49-6.1-8-5.25-7-12.76-17.07-22-29.61C343.32,378.8,318,344,290.18,305.55Z" style="fill:#f5f5f5"></path><path d="M280.86,311.05C259.41,268.78,240,230.53,226,202.8c-7.09-13.8-12.83-25-16.81-32.73-2-3.83-3.56-6.8-4.63-8.86l-1.24-2.29a6.87,6.87,0,0,0-.45-.77,4.56,4.56,0,0,0,.35.82l1.14,2.33,4.5,8.94L225.59,203,281.5,310.73c21.86,42,41.59,80.15,55.71,107.81,7.06,13.83,12.72,25.06,16.57,32.84,1.93,3.89,3.4,6.93,4.38,9a17.65,17.65,0,0,1,1.36,3.21,18.08,18.08,0,0,1-1.82-3c-1.11-2-2.72-5-4.76-8.8-4.07-7.68-9.89-18.82-17-32.63C321.69,391.57,302.25,353.32,280.86,311.05Z" style="fill:#f5f5f5"></path><path d="M270.77,315.05l-36.9-115.4c-4.79-14.73-8.67-26.64-11.36-34.92-1.36-4.09-2.43-7.27-3.16-9.47l-.85-2.45a5.09,5.09,0,0,0-.33-.83,5.27,5.27,0,0,0,.22.86c.18.59.43,1.41.75,2.48l3,9.52c2.69,8.28,6.56,20.2,11.33,34.93l38,115.06c14.86,44.9,28.25,85.58,37.76,115.09,4.76,14.75,8.56,26.7,11.12,35,1.28,4.14,2.25,7.36,2.88,9.56a17.88,17.88,0,0,1,.83,3.38,16.64,16.64,0,0,1-1.32-3.23c-.78-2.15-1.89-5.33-3.29-9.43-2.8-8.21-6.76-20.11-11.58-34.85C298.21,400.88,285.14,360.1,270.77,315.05Z" style="fill:#f5f5f5"></path><path d="M260.17,317.43c-7-46.73-13.37-89-18-119.67-2.37-15.28-4.29-27.65-5.63-36.24l-1.6-9.84c-.19-1.1-.34-2-.45-2.56a5.61,5.61,0,0,0-.19-.86,5.29,5.29,0,0,0,.08.88c.08.61.2,1.46.35,2.57.33,2.29.82,5.6,1.45,9.87,1.32,8.59,3.24,21,5.6,36.24,4.89,30.61,11.63,72.84,19.09,119.51s14.2,88.88,18.87,119.49c2.34,15.3,4.17,27.7,5.37,36.27.6,4.29,1.05,7.63,1.32,9.89a17.33,17.33,0,0,1,.28,3.47,17.5,17.5,0,0,1-.78-3.4c-.43-2.24-1-5.55-1.74-9.82-1.45-8.54-3.46-20.91-5.86-36.2C273.54,406.44,267.15,364.15,260.17,317.43Z" style="fill:#f5f5f5"></path><path d="M249.32,318.16c.43-47.24.82-90,1.11-121,.06-15.46.12-28,.15-36.66,0-4.3,0-7.65,0-10,0-1.11,0-2,0-2.59a8.56,8.56,0,0,0-.05-.88,5,5,0,0,0-.06.88c0,.62,0,1.48-.06,2.59,0,2.32-.07,5.67-.12,10,0,8.69-.11,21.2-.18,36.66,0,31,0,73.73,0,121s0,90-.21,120.93c-.1,15.47-.25,28-.41,36.65-.08,4.33-.17,7.69-.26,10a19.17,19.17,0,0,1-.26,3.47,17.34,17.34,0,0,1-.24-3.47c-.06-2.28-.12-5.64-.16-10-.09-8.66-.11-21.18-.08-36.66C248.49,408.13,248.85,365.37,249.32,318.16Z" style="fill:#f5f5f5"></path><path d="M238.48,317.22c7.89-46.59,15-88.76,20.22-119.32,2.51-15.26,4.53-27.62,5.94-36.19l1.55-9.85c.16-1.11.28-2,.37-2.57s.1-.88.09-.88a4.78,4.78,0,0,0-.2.86c-.12.61-.27,1.45-.48,2.55-.39,2.28-1,5.58-1.69,9.83-1.42,8.58-3.46,20.93-6,36.18-4.89,30.61-11.64,72.84-19.11,119.51S225,406.22,219.88,436.76c-2.55,15.27-4.67,27.63-6.2,36.15-.76,4.26-1.38,7.57-1.83,9.81a17.57,17.57,0,0,1-.82,3.39,19,19,0,0,1,.32-3.47c.29-2.27.76-5.59,1.41-9.88,1.28-8.56,3.23-20.94,5.71-36.22C223.44,406,230.55,363.79,238.48,317.22Z" style="fill:#f5f5f5"></path><path d="M227.92,314.63,267,199.93c4.92-14.69,8.91-26.57,11.67-34.82l3.1-9.49c.34-1.07.59-1.89.78-2.48a6.35,6.35,0,0,0,.23-.86,5,5,0,0,0-.34.82l-.87,2.45c-.76,2.19-1.85,5.36-3.26,9.44L266.62,199.8c-9.74,29.47-23.17,70.13-38,115.06s-28.26,85.57-38.19,114.94c-5,14.69-9,26.56-11.92,34.74-1.44,4.09-2.58,7.26-3.38,9.4a17.7,17.7,0,0,1-1.35,3.22,16.77,16.77,0,0,1,.86-3.38c.65-2.19,1.65-5.4,3-9.53,2.64-8.26,6.55-20.19,11.45-34.89C198.84,399.94,212.63,359.39,227.92,314.63Z" style="fill:#f5f5f5"></path><path d="M217.92,310.44c22.23-41.87,42.36-79.77,57-107.23,7.2-13.74,13-24.86,17.09-32.58,2-3.84,3.52-6.83,4.58-8.9l1.17-2.32a5.58,5.58,0,0,0,.36-.81,5.21,5.21,0,0,0-.46.76l-1.26,2.28-4.72,8.82L274.51,203,218.56,310.76c-21.81,42.07-41.62,80.13-56.12,107.6-7.25,13.74-13.17,24.83-17.33,32.47-2.07,3.81-3.7,6.77-4.84,8.76a17.59,17.59,0,0,1-1.84,3,17.24,17.24,0,0,1,1.4-3.2c1-2.06,2.49-5.08,4.46-8.95,3.93-7.75,9.7-18.92,16.89-32.69C175.56,390.19,195.66,352.27,217.92,310.44Z" style="fill:#f5f5f5"></path><path d="M208.71,304.75,282,207.59,304.07,178,310,170l1.52-2.11a5.51,5.51,0,0,0,.48-.75,5.89,5.89,0,0,0-.57.68l-1.6,2.06-6.07,8-22.08,29.53-72.4,97.82c-28.23,38.2-53.84,72.75-72.54,97.65-9.34,12.45-17,22.5-22.27,29.4-2.66,3.45-4.74,6.12-6.17,7.91a18.27,18.27,0,0,1-2.3,2.65,18.38,18.38,0,0,1,1.89-3c1.31-1.88,3.27-4.63,5.83-8.15,5.11-7.05,12.59-17.2,21.88-29.69C154.19,377,180.07,342.66,208.71,304.75Z" style="fill:#f5f5f5"></path><path d="M200.51,297.73,288.28,213l26.48-25.82,7.14-7.07,1.84-1.86a5.75,5.75,0,0,0,.6-.66,5.37,5.37,0,0,0-.68.58l-1.91,1.79-7.25,7L288,212.68l-87,85.56c-33.92,33.41-64.69,63.63-87.1,85.37-11.2,10.87-20.31,19.63-26.65,25.63-3.17,3-5.65,5.32-7.35,6.87a18.92,18.92,0,0,1-2.69,2.27,18.39,18.39,0,0,1,2.33-2.62c1.59-1.66,4-4.08,7-7.17,6.17-6.18,15.15-15.06,26.31-26C135.23,360.78,166.23,330.79,200.51,297.73Z" style="fill:#f5f5f5"></path><path d="M193.52,289.54l100.12-70.32,30.24-21.45,8.17-5.89,2.11-1.56a7.61,7.61,0,0,0,.7-.56,4.45,4.45,0,0,0-.76.47l-2.17,1.48-8.27,5.77-30.25,21.43L194,290.12c-38.8,27.82-74,53-99.55,71-12.78,9-23.17,16.28-30.38,21.25-3.61,2.48-6.42,4.39-8.35,5.66a18.2,18.2,0,0,1-3,1.83,18,18,0,0,1,2.72-2.24c1.83-1.39,4.56-3.42,8.09-6,7.07-5.16,17.35-12.56,30.1-21.63C119.06,341.83,154.43,317,193.52,289.54Z" style="fill:#f5f5f5"></path><path d="M187.92,280.38,298,226.32l33.28-16.54,9-4.57,2.33-1.21a4.67,4.67,0,0,0,.77-.45,5.43,5.43,0,0,0-.82.35L340.18,205l-9.08,4.43L297.81,226,188.25,281C145.51,302.53,106.77,322,78.64,335.85c-14.06,6.95-25.47,12.52-33.39,16.32-4,1.89-7,3.35-9.14,4.3a18.56,18.56,0,0,1-3.27,1.35,17.9,17.9,0,0,1,3-1.79c2-1.1,5-2.68,8.95-4.68,7.8-4,19.13-9.74,33.17-16.75C106.06,320.58,145,301.44,187.92,280.38Z" style="fill:#f5f5f5"></path><path d="M183.85,270.46,301.2,234.11l35.51-11.19,9.63-3.12,2.49-.83a5,5,0,0,0,.84-.33,8.07,8.07,0,0,0-.87.22l-2.53.74-9.68,3-35.51,11.16-117,37.41c-45.66,14.64-87,27.83-117,37.2-15,4.69-27.15,8.43-35.58,11-4.21,1.26-7.49,2.22-9.72,2.84a18.85,18.85,0,0,1-3.44.82,18.22,18.22,0,0,1,3.29-1.3c2.18-.77,5.41-1.86,9.58-3.24,8.35-2.76,20.46-6.66,35.44-11.41C96.58,297.5,138,284.62,183.85,270.46Z" style="fill:#f5f5f5"></path><path d="M181.42,260l121.71-17.75L340,236.73l10-1.58,2.6-.44a6,6,0,0,0,.88-.19,5.51,5.51,0,0,0-.9.08l-2.61.34-10,1.43-36.86,5.53L181.53,260.75c-47.43,7.39-90.39,14-121.51,18.63-15.57,2.31-28.17,4.12-36.9,5.3-4.36.6-7.75,1-10,1.3a17.93,17.93,0,0,1-3.53.28,18.71,18.71,0,0,1,3.45-.77c2.28-.42,5.65-1,10-1.72,8.69-1.43,21.27-3.41,36.82-5.78C90.91,273.24,133.92,266.93,181.42,260Z" style="fill:#f5f5f5"></path><path d="M180.68,249.37l123,1,37.29.13,10.13,0,2.64,0a7.85,7.85,0,0,0,.9,0,5.27,5.27,0,0,0-.9-.06l-2.64-.06L341,250.17,303.71,250l-123,.08c-48,.06-91.51,0-123-.14-15.74-.09-28.48-.22-37.28-.38-4.4-.08-7.82-.16-10.14-.25a19.39,19.39,0,0,1-3.53-.25,17.93,17.93,0,0,1,3.53-.24c2.32-.06,5.74-.12,10.14-.17,8.81-.08,21.55-.12,37.29-.09C89.18,248.62,132.66,248.94,180.68,249.37Z" style="fill:#f5f5f5"></path><path d="M181.62,238.71,303,258.52l36.81,5.82,10,1.51,2.61.37a5.44,5.44,0,0,0,.9.08,6,6,0,0,0-.88-.19l-2.6-.47-10-1.66-36.81-5.85L181.51,239.42C134.06,232.15,91.1,225.5,60,220.51c-15.53-2.5-28.09-4.58-36.76-6.08-4.34-.75-7.7-1.35-10-1.79a19.44,19.44,0,0,1-3.45-.8,18.21,18.21,0,0,1,3.53.3c2.3.29,5.69.75,10,1.38,8.72,1.26,21.31,3.17,36.85,5.6C91.35,224,134.26,231,181.62,238.71Z" style="fill:#f5f5f5"></path><path d="M184.25,228.33l116.69,38.36,35.42,11.45,9.66,3,2.52.76a4.35,4.35,0,0,0,.87.22,7.39,7.39,0,0,0-.84-.33l-2.49-.85-9.6-3.2-35.41-11.47L184,229c-45.7-14.52-87-27.73-116.93-37.48-14.94-4.87-27-8.87-35.34-11.69-4.16-1.41-7.39-2.53-9.56-3.32a17.52,17.52,0,0,1-3.28-1.33,18.66,18.66,0,0,1,3.44.85c2.22.64,5.49,1.62,9.7,2.91,8.4,2.59,20.53,6.43,35.49,11.24C97.47,199.8,138.72,213.32,184.25,228.33Z" style="fill:#f5f5f5"></path><path d="M188.51,218.49l109.1,55.93,33.15,16.79,9,4.5,2.37,1.14a7,7,0,0,0,.82.36,5.06,5.06,0,0,0-.77-.46l-2.32-1.23-9-4.64-33.14-16.81L188.18,219.12c-42.8-21.41-81.52-40.86-109.47-55.11-14-7.12-25.26-12.93-33-17-3.88-2-6.89-3.64-8.91-4.75a18.8,18.8,0,0,1-3-1.82A19.45,19.45,0,0,1,37,141.81c2.1,1,5.17,2.45,9.11,4.38,7.88,3.86,19.24,9.52,33.25,16.59C107.37,176.9,146,196.63,188.51,218.49Z" style="fill:#f5f5f5"></path><path d="M194.29,209.43l98.86,72,30.07,21.68,8.22,5.83,2.16,1.49a4.45,4.45,0,0,0,.75.48,6.43,6.43,0,0,0-.69-.56l-2.09-1.58-8.13-6-30.05-21.69L193.86,210c-38.87-27.73-74-52.89-99.37-71.26-12.67-9.18-22.89-16.66-29.91-21.88-3.51-2.61-6.23-4.66-8-6.07a18.71,18.71,0,0,1-2.7-2.25,18.85,18.85,0,0,1,3,1.85c1.92,1.29,4.71,3.22,8.3,5.73,7.17,5,17.49,12.36,30.2,21.49C120.76,155.88,155.72,181.3,194.29,209.43Z" style="fill:#f5f5f5"></path><path d="M201.43,201.37l86.27,86.25,26.27,26,7.2,7,1.89,1.81a4.61,4.61,0,0,0,.67.58,4.78,4.78,0,0,0-.59-.66l-1.82-1.88-7.09-7.12-26.25-26-87.07-85.48c-34-33.33-64.75-63.57-86.88-85.59-11.06-11-20-20-26.09-26.18-3.06-3.12-5.41-5.55-7-7.23a18,18,0,0,1-2.31-2.64,18.45,18.45,0,0,1,2.67,2.3c1.69,1.56,4.15,3.89,7.29,6.92,6.29,6.06,15.33,14.89,26.44,25.85C137.26,137.22,167.78,167.68,201.43,201.37Z" style="fill:#f5f5f5"></path><path d="M209.75,194.5l71.58,98.39,21.84,29.71,6,8,1.58,2.07a6.88,6.88,0,0,0,.57.69,3.65,3.65,0,0,0-.48-.75q-.52-.76-1.5-2.13l-5.87-8.13-21.82-29.73c-18.57-25-44.18-59.58-72.49-97.75s-53.91-72.69-72.28-97.83c-9.19-12.56-16.58-22.77-21.63-29.86-2.53-3.54-4.47-6.31-5.76-8.2a17.75,17.75,0,0,1-1.87-3,18.75,18.75,0,0,1,2.28,2.67c1.42,1.8,3.48,4.48,6.1,8,5.26,6.94,12.79,17,22,29.58C156.52,121.32,181.85,156.07,209.75,194.5Z" style="fill:#f5f5f5"></path><path d="M219.07,189c21.49,42.25,40.95,80.48,55.05,108.19L291,329.88l4.65,8.86,1.24,2.29a6,6,0,0,0,.45.76A4.35,4.35,0,0,0,297,341l-1.15-2.34c-1-2.07-2.56-5.07-4.5-8.93L274.47,297c-14.35-27.59-34.16-65.64-56.05-107.69s-41.69-80.09-55.84-107.74c-7.08-13.83-12.76-25-16.62-32.82-1.93-3.89-3.41-6.92-4.38-9a17.37,17.37,0,0,1-1.37-3.21,19,19,0,0,1,1.82,3c1.11,2,2.72,5,4.77,8.79,4.09,7.67,9.91,18.81,17,32.6C178.13,108.52,197.61,146.74,219.07,189Z" style="fill:#f5f5f5"></path><path d="M229.15,185c14.46,45,27.56,85.81,37,115.35,4.81,14.72,8.7,26.63,11.4,34.91,1.37,4.09,2.44,7.27,3.17,9.46.37,1.06.66,1.87.86,2.46a4.67,4.67,0,0,0,.33.82,5.27,5.27,0,0,0-.22-.86l-.76-2.48c-.7-2.21-1.72-5.41-3-9.52-2.7-8.27-6.58-20.19-11.38-34.91-9.76-29.46-23.24-70.1-38.13-115s-28.35-85.55-37.9-115c-4.78-14.75-8.59-26.7-11.16-35-1.29-4.14-2.26-7.36-2.89-9.55a16.61,16.61,0,0,1-.84-3.39A17.92,17.92,0,0,1,177,25.47c.78,2.15,1.9,5.33,3.3,9.43,2.81,8.2,6.79,20.1,11.63,34.83C201.59,99.18,214.72,139.94,229.15,185Z" style="fill:#f5f5f5"></path><path d="M239.74,182.58c7.08,46.72,13.49,89,18.13,119.65,2.4,15.28,4.34,27.65,5.68,36.23.7,4.25,1.24,7.56,1.62,9.84.19,1.1.34,1.95.45,2.56a5.23,5.23,0,0,0,.19.86,5.29,5.29,0,0,0-.08-.88c-.08-.61-.2-1.46-.35-2.57l-1.46-9.86c-1.34-8.59-3.27-21-5.65-36.24-4.93-30.6-11.73-72.82-19.24-119.48S224.71,93.83,220,63.22c-2.36-15.3-4.21-27.69-5.42-36.27-.61-4.29-1.05-7.62-1.33-9.88a17.41,17.41,0,0,1-.28-3.48,19.12,19.12,0,0,1,.78,3.4c.43,2.24,1,5.55,1.76,9.82C217,35.35,219,47.72,221.41,63,226.26,93.59,232.7,135.88,239.74,182.58Z" style="fill:#f5f5f5"></path><path d="M250.59,181.84c-.37,47.24-.71,90-1,121,0,15.46-.08,28-.11,36.66,0,4.3,0,7.65,0,10,0,1.11,0,2,0,2.59a8.56,8.56,0,0,0,0,.88,5,5,0,0,0,.06-.88c0-.62,0-1.48.06-2.59,0-2.31.06-5.66.11-10,0-8.69.07-21.2.13-36.66,0-31-.09-73.73-.15-121s-.11-90,.06-120.92c.08-15.48.21-28,.36-36.66.08-4.33.16-7.69.25-10a17.07,17.07,0,0,1,.26-3.47,19.52,19.52,0,0,1,.24,3.47c.07,2.28.13,5.64.17,10,.1,8.66.14,21.18.12,36.66C251.3,91.87,251,134.63,250.59,181.84Z" style="fill:#f5f5f5"></path><path d="M261.44,182.76c-7.84,46.61-14.93,88.78-20.07,119.36-2.49,15.26-4.5,27.61-5.9,36.19-.66,4.26-1.17,7.57-1.53,9.86-.16,1.1-.28,1.95-.36,2.56a4.86,4.86,0,0,0-.09.88,5.34,5.34,0,0,0,.2-.86l.46-2.55c.4-2.28,1-5.58,1.69-9.83,1.4-8.58,3.43-20.93,5.93-36.19,4.85-30.62,11.55-72.86,19-119.53s14.09-88.9,19.16-119.45c2.52-15.27,4.63-27.63,6.15-36.15.76-4.27,1.37-7.57,1.82-9.81a17.61,17.61,0,0,1,.81-3.39,17.34,17.34,0,0,1-.31,3.47c-.29,2.26-.76,5.59-1.4,9.87-1.27,8.57-3.2,21-5.67,36.23C276.36,94,269.31,136.19,261.44,182.76Z" style="fill:#f5f5f5"></path><path d="M272,185.34c-15.21,44.81-29,85.36-38.94,114.76-4.9,14.68-8.86,26.57-11.62,34.83-1.33,4.1-2.37,7.29-3.09,9.5-.33,1.06-.59,1.88-.77,2.47a6.35,6.35,0,0,0-.23.86,4.13,4.13,0,0,0,.34-.82c.21-.58.49-1.39.87-2.45l3.24-9.44c2.76-8.26,6.74-20.14,11.65-34.83,9.7-29.48,23.07-70.15,37.86-115.1s28.15-85.61,38-115c4.94-14.7,9-26.57,11.87-34.76,1.43-4.09,2.57-7.26,3.37-9.4a18.28,18.28,0,0,1,1.34-3.22,17.24,17.24,0,0,1-.85,3.38c-.65,2.19-1.65,5.4-3,9.54-2.63,8.26-6.52,20.18-11.4,34.9C301,100,287.23,140.57,272,185.34Z" style="fill:#f5f5f5"></path><path d="M282,189.52c-22.19,41.9-42.26,79.82-56.81,107.31l-17.06,32.6-4.57,8.9c-.5,1-.88,1.77-1.16,2.32a5.58,5.58,0,0,0-.36.81,5.21,5.21,0,0,0,.46-.76l1.25-2.28,4.71-8.82L225.55,297,281.37,189.2c21.75-42.1,41.5-80.18,56-107.67,7.23-13.75,13.13-24.85,17.28-32.49,2.07-3.82,3.69-6.77,4.83-8.76a18,18,0,0,1,1.84-3,19.22,19.22,0,0,1-1.4,3.2c-1,2.07-2.49,5.09-4.45,9-3.92,7.76-9.67,18.93-16.85,32.71C324.26,109.72,304.21,147.66,282,189.52Z" style="fill:#f5f5f5"></path><path d="M291.22,195.19l-73.17,97.26L196,322l-5.93,8.08-1.52,2.12a5.67,5.67,0,0,0-.49.75,5.23,5.23,0,0,0,.58-.68l1.6-2.06,6-8,22.05-29.56,72.27-97.91C318.82,156.54,344.39,122,363.05,97,372.38,84.57,380,74.51,385.28,67.6c2.66-3.45,4.73-6.12,6.17-7.91A17.77,17.77,0,0,1,393.74,57,18.12,18.12,0,0,1,391.86,60c-1.31,1.88-3.27,4.64-5.82,8.17-5.11,7-12.57,17.2-21.84,29.71C345.65,122.87,319.81,157.26,291.22,195.19Z" style="fill:#f5f5f5"></path><path d="M299.43,202.21l-87.67,84.88-26.43,25.85L178.19,320l-1.83,1.86a5.56,5.56,0,0,0-.6.66,4.61,4.61,0,0,0,.67-.58l1.91-1.79,7.24-7c6.28-6.13,15.31-14.94,26.46-25.84l86.88-85.66c33.88-33.45,64.61-63.71,87-85.47,11.19-10.89,20.28-19.66,26.62-25.67,3.16-3,5.64-5.33,7.34-6.88a19.25,19.25,0,0,1,2.68-2.28A16.7,16.7,0,0,1,420.22,84c-1.58,1.66-4,4.08-7,7.17-6.15,6.19-15.13,15.08-26.27,26C364.63,139.08,333.67,169.11,299.43,202.21Z" style="fill:#f5f5f5"></path><path d="M306.43,210.39l-100,70.44-30.21,21.49L168,308.23l-2.1,1.56a4.86,4.86,0,0,0-.7.56,7.2,7.2,0,0,0,.76-.47l2.17-1.48,8.26-5.78,30.22-21.47L306,209.81c38.76-27.87,73.9-53.05,99.45-71.13,12.78-9,23.15-16.32,30.36-21.29,3.6-2.48,6.42-4.4,8.34-5.67a18.2,18.2,0,0,1,3-1.83,17.86,17.86,0,0,1-2.71,2.23c-1.84,1.4-4.56,3.43-8.09,6-7.06,5.17-17.34,12.58-30.07,21.67C380.82,158,345.49,182.93,306.43,210.39Z" style="fill:#f5f5f5"></path><path d="M312,219.55,202,273.74l-33.25,16.59-9,4.57-2.33,1.22a4.67,4.67,0,0,0-.77.45,4.56,4.56,0,0,0,.82-.35l2.38-1.13,9.08-4.44,33.26-16.56,109.49-55.18c42.72-21.57,81.43-41,109.54-55,14.06-7,25.46-12.56,33.37-16.36,3.95-1.9,7-3.36,9.14-4.32a18.7,18.7,0,0,1,3.26-1.35,18,18,0,0,1-3,1.79c-2,1.1-5.05,2.69-8.95,4.7-7.8,4-19.12,9.76-33.14,16.79C393.85,179.24,355,198.43,312,219.55Z" style="fill:#f5f5f5"></path><path d="M316.12,229.45,198.82,266l-35.49,11.23-9.63,3.13-2.49.84a5,5,0,0,0-.84.33,7.43,7.43,0,0,0,.87-.22l2.53-.75,9.67-3,35.5-11.21,117-37.57c45.63-14.69,87-27.93,117-37.34,15-4.71,27.15-8.46,35.57-11,4.21-1.26,7.49-2.22,9.72-2.85a18.64,18.64,0,0,1,3.44-.82,18.66,18.66,0,0,1-3.29,1.3c-2.18.77-5.41,1.87-9.58,3.25-8.35,2.77-20.45,6.69-35.42,11.46C403.36,202.31,361.91,215.24,316.12,229.45Z" style="fill:#f5f5f5"></path><path d="M318.56,239.87,196.88,257.78,160,263.38,150,265l-2.6.44a6,6,0,0,0-.88.19,5.44,5.44,0,0,0,.9-.08l2.61-.34,10-1.45,36.85-5.58,121.51-19c47.42-7.45,90.37-14.13,121.5-18.78,15.56-2.33,28.16-4.16,36.88-5.36,4.36-.6,7.75-1,10.05-1.31a18,18,0,0,1,3.54-.28,19.31,19.31,0,0,1-3.46.77c-2.28.43-5.64,1-10,1.73-8.68,1.44-21.25,3.44-36.81,5.83C409.06,226.56,366.06,232.92,318.56,239.87Z" style="fill:#f5f5f5"></path><ellipse cx="145.43" cy="394.82" rx="46.62" ry="10.3" style="fill:#e0e0e0"></ellipse><ellipse cx="256.96" cy="422.62" rx="46.62" ry="10.3" style="fill:#e0e0e0"></ellipse><ellipse cx="383.01" cy="375.19" rx="46.62" ry="10.3" style="fill:#e0e0e0"></ellipse><path d="M262.13,203l6.53,2.45L263,207.09a6,6,0,0,0-4,3.85l-2.05,6.27-2.52-6.29a5.91,5.91,0,0,0-3.47-3.35l-5.74-2.09,6.22-2.55a6,6,0,0,0,3.27-3.34l2.24-5.83,1.61,5.42A5.93,5.93,0,0,0,262.13,203Z" style="fill:#ebebeb"></path><path d="M73.59,149.09l4.26,1.6-3.7,1.05a3.86,3.86,0,0,0-2.62,2.51l-1.34,4.1-1.64-4.11a3.86,3.86,0,0,0-2.27-2.19l-3.75-1.36L66.59,149a3.85,3.85,0,0,0,2.14-2.18L70.19,143l1.06,3.54A3.87,3.87,0,0,0,73.59,149.09Z" style="fill:#ebebeb"></path><path d="M421.23,203.21l4.27,1.6-3.7,1.05a3.87,3.87,0,0,0-2.62,2.52l-1.34,4.09-1.65-4.1a3.89,3.89,0,0,0-2.26-2.2l-3.75-1.36,4.06-1.66a3.88,3.88,0,0,0,2.13-2.19l1.47-3.81,1.05,3.55A3.9,3.9,0,0,0,421.23,203.21Z" style="fill:#ebebeb"></path><path d="M175.2,245.32l4.26,1.6-3.7,1.06a3.86,3.86,0,0,0-2.62,2.51l-1.34,4.09-1.65-4.1a3.84,3.84,0,0,0-2.26-2.19l-3.75-1.37,4.06-1.66a3.93,3.93,0,0,0,2.14-2.19l1.46-3.8,1,3.54A3.84,3.84,0,0,0,175.2,245.32Z" style="fill:#ebebeb"></path><path d="M340.6,241.57l7,2.64-6.09,1.73a6.36,6.36,0,0,0-4.31,4.14l-2.2,6.74-2.72-6.76a6.34,6.34,0,0,0-3.72-3.61l-6.17-2.24,6.68-2.74a6.32,6.32,0,0,0,3.51-3.59l2.42-6.27,1.73,5.83A6.34,6.34,0,0,0,340.6,241.57Z" style="fill:#ebebeb"></path><path d="M349.91,224.12l1.41.53-1.23.35a1.26,1.26,0,0,0-.86.83l-.45,1.36-.54-1.36a1.27,1.27,0,0,0-.76-.73l-1.24-.45,1.35-.55a1.34,1.34,0,0,0,.71-.73l.48-1.26.35,1.17A1.26,1.26,0,0,0,349.91,224.12Z" style="fill:#ebebeb"></path><path d="M130,113.39l2.67,1-2.32.65a2.42,2.42,0,0,0-1.63,1.57l-.84,2.56-1-2.56a2.38,2.38,0,0,0-1.41-1.37l-2.35-.85,2.54-1.05a2.42,2.42,0,0,0,1.34-1.36l.91-2.38.66,2.21A2.38,2.38,0,0,0,130,113.39Z" style="fill:#ebebeb"></path><path d="M236.44,79.23l2.66,1-2.31.66a2.39,2.39,0,0,0-1.64,1.57L234.31,85l-1-2.57a2.38,2.38,0,0,0-1.41-1.37l-2.34-.85,2.53-1a2.41,2.41,0,0,0,1.34-1.37l.91-2.38.66,2.22A2.44,2.44,0,0,0,236.44,79.23Z" style="fill:#ebebeb"></path><path d="M291.73,101.45l2.66,1-2.31.65a2.43,2.43,0,0,0-1.64,1.58l-.83,2.56-1-2.57a2.4,2.4,0,0,0-1.42-1.37l-2.34-.85,2.53-1a2.44,2.44,0,0,0,1.34-1.37l.92-2.38.65,2.21A2.44,2.44,0,0,0,291.73,101.45Z" style="fill:#ebebeb"></path><path d="M366.3,113.39l2.67,1-2.32.65a2.42,2.42,0,0,0-1.63,1.57l-.84,2.56-1-2.56a2.37,2.37,0,0,0-1.42-1.37l-2.34-.85,2.54-1.05a2.37,2.37,0,0,0,1.33-1.36l.92-2.38.66,2.21A2.36,2.36,0,0,0,366.3,113.39Z" style="fill:#ebebeb"></path><path d="M95.75,116.24l7,2.65-6.12,1.74a6.41,6.41,0,0,0-4.33,4.15l-2.21,6.77-2.72-6.79a6.4,6.4,0,0,0-3.75-3.62l-6.19-2.25,6.71-2.75a6.39,6.39,0,0,0,3.53-3.61l2.42-6.29,1.74,5.85A6.38,6.38,0,0,0,95.75,116.24Z" style="fill:#ebebeb"></path><path d="M272,58.07l6.73,2.53-5.84,1.65a6.11,6.11,0,0,0-4.13,4l-2.11,6.46-2.6-6.48a6.06,6.06,0,0,0-3.57-3.46l-5.91-2.14L261,58a6.08,6.08,0,0,0,3.37-3.45l2.31-6,1.66,5.58A6.09,6.09,0,0,0,272,58.07Z" style="fill:#ebebeb"></path><path d="M55.8,233.37l6.73,2.53-5.84,1.65a6.11,6.11,0,0,0-4.13,4L50.45,248l-2.6-6.48A6.12,6.12,0,0,0,44.28,238l-5.91-2.14,6.4-2.63a6.11,6.11,0,0,0,3.37-3.45l2.31-6,1.66,5.58A6.09,6.09,0,0,0,55.8,233.37Z" style="fill:#ebebeb"></path></g><g id="freepik--Floor--inject-272"><path d="M476.21,343.89c0,.15-101.29.27-226.2.27S23.79,344,23.79,343.89s101.27-.26,226.22-.26S476.21,343.75,476.21,343.89Z" style="fill:#263238"></path></g><g id="freepik--cherry-2--inject-272"><path d="M311.59,152.14c-16,11-27.53,29.63-26.59,49l.86,1.36c18-4.07,35.73-10.62,50.55-21.62s36.47-31.6,40.21-49.68C357.22,132,327.57,141.11,311.59,152.14Z" style="fill:#455a64"></path><g style="opacity:0.30000000000000004"><path d="M311.59,152.14c-16,11-27.53,29.63-26.59,49l.86,1.36c18-4.07,35.73-10.62,50.55-21.62s36.47-31.6,40.21-49.68C357.22,132,327.57,141.11,311.59,152.14Z"></path></g><path d="M287.11,198.92s.06-.09.22-.25L288,198l2.65-2.61c1.14-1.15,2.61-2.47,4.31-4l2.74-2.46,3.14-2.67c4.39-3.77,9.79-8,15.86-12.67s12.88-9.56,20.06-14.67l37-25.87c2.36-1.66,4.49-3.18,6.34-4.52s3.47-2.49,4.76-3.46l3-2.2.79-.56a1.64,1.64,0,0,1,.28-.18,1.94,1.94,0,0,1-.25.22l-.76.6L385,125.21c-1.27,1-2.86,2.17-4.71,3.53s-3.95,2.91-6.3,4.59c-9.36,6.77-22.51,15.82-36.9,26-7.18,5.1-14,10-20.07,14.62s-11.5,8.85-15.91,12.57l-3.17,2.64-2.75,2.42c-1.72,1.52-3.22,2.81-4.37,3.94l-2.72,2.54-.72.65Z" style="fill:#455a64"></path><path d="M445.29,263c-9.24-9.83-22.31-15-35.39-16.1s-26.22,1.69-38.68,6C357.51,257.68,344,264.63,334.44,276c-12.37,14.67-18,30.74-13.28,49.73,3.48,14,14.67,30.81,25.36,39.83s21.87,15.59,35.39,17.83c13.82,2.28,28.32,1,41.15-4.82a50,50,0,0,0,16.16-11.73c8.29-8.87,16.64-19.46,18.82-31.41L462,313.81C462.43,284.66,454.53,272.82,445.29,263Z" style="fill:#FF725E"></path><path d="M385.81,248.76s-2.38,13.31.87,13.67,14.07-5.95,12.81-2.43-16.2,19-36.85,13.76,9.78-3.63,11.77-7.12,5.3-16.37,5.3-16.37Z" style="opacity:0.30000000000000004"></path><g style="opacity:0.1"><path d="M428.81,262.68c-1.17-3.18-4.35-5.4-7.74-6.43a23.27,23.27,0,0,0-4.85-.87,7.53,7.53,0,0,0-7.44,4.35C403,272,389,280.6,374.75,280.15c-7.63-.24-15.08-2.78-22.71-2.58-5.79.15-12.09,2.7-15.08,7.06h0c-12.35,15.9-13.26,36.88-5.11,50.68,2.85,4.82,9.83,10.64,15.66,10.52,6.82-.14,11.5-6.69,13.3-12.91s2.07-13,5.75-18.45c5.72-8.44,17.39-10.66,27.22-14.41A68,68,0,0,0,425.7,275C428.18,271.29,430.32,266.8,428.81,262.68Z" style="fill:#fff"></path></g><path d="M352.48,281.88l7.24,5.79s-16.35,11.08-14,29.89L334.29,314S331.64,289.34,352.48,281.88Z" style="fill:#fff"></path><g style="opacity:0.1"><path d="M352.61,362.05a54.84,54.84,0,0,0,62.86,12.56C394.22,371.15,375.37,374.19,352.61,362.05Z" style="fill:#fff"></path></g><path d="M325.92,331.28a5.37,5.37,0,0,1-.29-.6c-.16-.4-.44-1-.72-1.76a44.7,44.7,0,0,1-2-6.71,48.34,48.34,0,0,1,11.77-43,44.39,44.39,0,0,1,5.1-4.78c.63-.53,1.17-.88,1.52-1.14a3.26,3.26,0,0,1,.55-.37,3,3,0,0,1-.49.45c-.33.29-.84.67-1.45,1.22a49.48,49.48,0,0,0-16.64,47.51,52.84,52.84,0,0,0,1.78,6.72c.25.78.5,1.37.63,1.78A2.9,2.9,0,0,1,325.92,331.28Z" style="fill:#fff"></path><path d="M398.37,266a4.65,4.65,0,0,1-.59,1.81,11.14,11.14,0,0,1-7,5.75,4.32,4.32,0,0,1-1.89.24,13.83,13.83,0,0,1,1.78-.59,12.93,12.93,0,0,0,3.86-2.19,12.71,12.71,0,0,0,2.88-3.38A13.13,13.13,0,0,1,398.37,266Z" style="fill:#fff"></path><path d="M391.58,125.33l8.95-20.65L390.32,100l-7,22.79s-10.87,41.57-10.78,77.55c.08,30.68,1.77,55.08,2.75,66.7,0,4.33.18,7.28.18,7.28.17,0,.33,0,.5.05v.08l.2-.07c3.62.32,7.26-1.06,10.92-3.25-1.74-2.29-2.87-6-3.59-10-1.52-22.78-3.18-43.4-2.32-62.08C382.93,162.31,391.58,125.33,391.58,125.33Z" style="fill:#455a64"></path><path d="M401,104c-.45,1.14-3.18,1.13-6.1,0s-4.94-3-4.5-4.12,3.17-1.13,6.1,0S401.39,102.87,401,104Z" style="fill:#263238"></path><path d="M400.53,258.32s-.06.16-.22.45a14.2,14.2,0,0,1-.73,1.25,30.17,30.17,0,0,1-3.22,4.22,33.11,33.11,0,0,1-31.95,10.14,30.81,30.81,0,0,1-5.07-1.6c-.58-.22-1-.45-1.31-.59s-.45-.23-.44-.25a18.73,18.73,0,0,1,1.83.66,35.64,35.64,0,0,0,5.06,1.42,33.7,33.7,0,0,0,31.61-10,36.52,36.52,0,0,0,3.33-4.09A19.29,19.29,0,0,1,400.53,258.32Z" style="fill:#263238"></path></g><g id="freepik--cherries-1--inject-272"><path d="M147.15,115.1c-19.4.9-39.05,10.54-48.53,27.48l0,1.61c17.42,6.09,35.92,9.92,54.32,8.45s47.67-7.48,60.42-20.83C196.52,122.18,166.54,114.21,147.15,115.1Z" style="fill:#455a64"></path><g style="opacity:0.30000000000000004"><path d="M147.15,115.1c-19.4.9-39.05,10.54-48.53,27.48l0,1.61c17.42,6.09,35.92,9.92,54.32,8.45s47.67-7.48,60.42-20.83C196.52,122.18,166.54,114.21,147.15,115.1Z"></path></g><path d="M101.6,141.8a1.31,1.31,0,0,1,.32-.09l.94-.23,3.63-.81c1.57-.37,3.52-.71,5.78-1.11l3.62-.64,4.08-.59c5.72-.87,12.56-1.62,20.16-2.35s16-1.28,24.79-1.81L210,131.83c2.88-.16,5.48-.32,7.77-.48s4.26-.28,5.87-.41l3.71-.28,1,0a1.19,1.19,0,0,1,.33,0,1.45,1.45,0,0,1-.33.06l-1,.11-3.7.37c-1.61.17-3.58.32-5.87.5s-4.89.38-7.77.56c-11.53.78-27.47,1.49-45.07,2.49-8.8.53-17.17,1.11-24.77,1.77s-14.44,1.41-20.16,2.23l-4.08.56-3.62.6c-2.26.37-4.21.68-5.79,1l-3.65.72-.95.17Z" style="fill:#455a64"></path><path d="M178.44,281c-9.24-9.82-22.3-15-35.38-16.09s-26.22,1.69-38.69,6C90.66,275.66,77.19,282.6,67.6,294c-12.38,14.66-18,30.74-13.28,49.72,3.47,14,14.66,30.82,25.36,39.84s21.86,15.59,35.39,17.82c13.82,2.29,28.31,1,41.15-4.81a49.83,49.83,0,0,0,16.15-11.73,63.43,63.43,0,0,0,15.77-32.06l3.94-21.61C196.25,300.53,187.68,290.8,178.44,281Z" style="fill:#FF725E"></path><g style="opacity:0.30000000000000004"><path d="M190.66,299.32l-.55-1.52c-7.24-2.92-16.82-1.2-23.2,3.3s-10.79,11.34-13.84,18.54a71.21,71.21,0,0,0,4.11,62.76c1.83,3.14,4.55,6.47,8.18,6.36,3-.09,5.36-2.55,7.24-4.9C192.34,359.12,198.8,329.9,190.66,299.32Z"></path></g><path d="M119,266.74s-2.38,13.3.86,13.66,14.07-5.94,12.81-2.43-16.19,19-36.84,13.77,9.78-3.64,11.76-7.13,5.3-16.36,5.3-16.36Z" style="opacity:0.30000000000000004"></path><g style="opacity:0.1"><path d="M162,280.66c-1.17-3.18-4.34-5.4-7.73-6.43a23.5,23.5,0,0,0-4.86-.88,7.55,7.55,0,0,0-7.43,4.36c-5.81,12.24-19.77,20.87-34,20.42-7.64-.24-15.08-2.78-22.72-2.58-5.79.15-12.09,2.7-15.07,7.05h0C57.77,318.49,56.85,339.48,65,353.28c2.85,4.82,9.82,10.64,15.66,10.52,6.82-.14,11.49-6.69,13.3-12.91s2.07-13,5.75-18.45c5.72-8.44,17.39-10.66,27.21-14.42a67.79,67.79,0,0,0,31.92-25.08C161.33,289.26,163.48,284.78,162,280.66Z" style="fill:#fff"></path></g><path d="M85.64,299.85l7.24,5.8s-16.36,11.08-14,29.89L67.45,332S64.79,307.32,85.64,299.85Z" style="fill:#fff"></path><g style="opacity:0.1"><path d="M85.77,380a54.83,54.83,0,0,0,62.85,12.56C127.37,389.13,108.53,392.17,85.77,380Z" style="fill:#fff"></path></g><path d="M252.53,293.73a54.92,54.92,0,0,1-34.6,3.26,40.68,40.68,0,0,0-18.56-.35c-22.79,5.48-36.22,22.5-35.67,48.84s14.37,82.46,74.31,80.13c56.3-2.2,73-30,79-76.57C321.71,312.61,289.55,277.26,252.53,293.73Z" style="fill:#FF725E"></path><path d="M222.15,297.8s5.2,11.23,1.9,11.61-13.83-3.52-12.79-1.64,10.82,7.84,25.68,3.39,24.26-13.52,22-13.36-13.08,8.66-16.26,6.38a16.16,16.16,0,0,1-4.77-6.38A56.73,56.73,0,0,1,222.15,297.8Z" style="opacity:0.30000000000000004"></path><path d="M238.1,117.12l-13.68,19.51c-75.87,43.79-103.21,103.93-111.63,128.54h0c-6.85,15.07-4.11,27.11-4.11,27.11,3.85.58,7.73-.86,11.63-3.19-2.79-2.57-2.46-7.65-2.14-12.47,0-.15,0-.3,0-.46,20.87-79.37,105.49-127.42,105.49-127.42s-12.25,17.08-13.63,63.33a214.09,214.09,0,0,0,13.47,80.8c2.73,8.39,6.71,20,6.71,20a38.64,38.64,0,0,0,14.45-4.35l-6.82-10.78c-14.23-36.6-19.58-70.35-16.85-94.31,7.28-63.9,27.7-72.94,30.74-73.7S238.1,117.12,238.1,117.12Z" style="fill:#455a64"></path><path d="M243.59,414.92c1.71.59,14.41,8,37.24-6.9s27.93-42.52,27.95-41.72-7,13.45-20.11,24.06C269,406.3,243.59,414.92,243.59,414.92Z" style="fill:#fff;opacity:0.1"></path><path d="M200.14,310.82c-4.13-2.24-13.16-.16-16.62,3a39.38,39.38,0,0,0-13,31.35c.92,21.73,22.5,18.85,36.24,7.81s28.41-22.94,53.47-29.67c30.73-8.25,45.61-5.6,45.61-5.6-3.1-6.82-13.16-25.3-31.43-24.49-11.28.51-21.71,24.42-40.43,26.47C221.54,321.06,207.87,315,200.14,310.82Z" style="fill:#fff;opacity:0.1"></path><path d="M196.67,318.7l7.54,5.41S188.47,336,191.85,354.69l-11.64-3S176.25,327.26,196.67,318.7Z" style="fill:#fff"></path><path d="M258,299.32a2.88,2.88,0,0,1-.4.4c-.27.25-.66.63-1.2,1.08-1.05.92-2.62,2.21-4.65,3.68a54.75,54.75,0,0,1-7.51,4.6A41.07,41.07,0,0,1,234,312.65a31.76,31.76,0,0,1-10.78.26,27,27,0,0,1-8.4-2.68,21.32,21.32,0,0,1-4.86-3.41,12.57,12.57,0,0,1-1.13-1.16,2.47,2.47,0,0,1-.36-.43A27.49,27.49,0,0,0,215,309.9a27.18,27.18,0,0,0,8.3,2.53,32.1,32.1,0,0,0,10.61-.29,48,48,0,0,0,17.58-8c2.05-1.42,3.64-2.67,4.73-3.54l1.26-1C257.78,299.41,257.94,299.3,258,299.32Z" style="fill:#263238"></path><g style="opacity:0.30000000000000004"><path d="M196.19,399.25a73.59,73.59,0,0,1-23.23-33c2.31,14.14,8.07,29,19.1,38.18s23.73,15.35,40.55,15.34C219.38,416.56,206.72,407.89,196.19,399.25Z"></path></g><path d="M223.69,148.74s7.24-8.52,6.43-7.3-15.66,27.36-17.44,41.79C212.68,183.23,215.73,160.2,223.69,148.74Z" style="opacity:0.30000000000000004"></path><path d="M179.46,171.05s-.12.15-.37.39L178,172.49c-1,.89-2.44,2.2-4.19,3.84-3.51,3.27-8.23,7.93-13.1,13.39s-8.94,10.71-11.79,14.57c-1.42,1.93-2.55,3.51-3.32,4.61l-.9,1.25c-.22.29-.33.43-.35.42a2.12,2.12,0,0,1,.26-.47l.82-1.31c.72-1.14,1.81-2.75,3.2-4.71a170,170,0,0,1,24.93-28c1.78-1.61,3.26-2.88,4.3-3.72l1.21-1A3,3,0,0,1,179.46,171.05Z" style="fill:#fff"></path><path d="M187.34,164.78a16.61,16.61,0,0,1-2.52,2.22,15.55,15.55,0,0,1-2.64,2.08,8.55,8.55,0,0,1,2.3-2.48A8.41,8.41,0,0,1,187.34,164.78Z" style="fill:#fff"></path><path d="M215.86,261.79a9.62,9.62,0,0,1-.36-1.5c-.21-1-.47-2.39-.78-4.15-.61-3.51-1.35-8.38-2-13.78s-1-10.32-1.23-13.87c-.11-1.78-.17-3.22-.2-4.22a9.25,9.25,0,0,1,0-1.55,8.67,8.67,0,0,1,.19,1.54c.1,1.08.22,2.5.37,4.2.3,3.55.75,8.44,1.38,13.84s1.31,10.26,1.83,13.78l.62,4.17A8,8,0,0,1,215.86,261.79Z" style="fill:#fff"></path><path d="M59.08,349.26a2.94,2.94,0,0,1-.29-.6c-.17-.4-.45-1-.72-1.76a44.52,44.52,0,0,1-2-6.71,48.41,48.41,0,0,1,11.77-43,46.11,46.11,0,0,1,5.1-4.78c.64-.53,1.17-.88,1.52-1.14a2.7,2.7,0,0,1,.56-.37,2.84,2.84,0,0,1-.5.45c-.32.29-.84.67-1.45,1.22a51.18,51.18,0,0,0-5,4.87,50,50,0,0,0-9.89,49.35c.24.79.49,1.38.63,1.79A2.9,2.9,0,0,1,59.08,349.26Z" style="fill:#fff"></path><path d="M164.16,345a2.45,2.45,0,0,1-.06-.61c0-.4-.06-1,0-1.74a39.62,39.62,0,0,1,.54-6.4,43.26,43.26,0,0,1,24.74-32.5,40.42,40.42,0,0,1,6-2.23c.73-.22,1.31-.32,1.69-.42a2.71,2.71,0,0,1,.6-.1,3.6,3.6,0,0,1-.57.2c-.38.13-1,.27-1.66.52a44.32,44.32,0,0,0-5.93,2.37A44,44,0,0,0,165,336.34a45.86,45.86,0,0,0-.71,6.34c0,.76,0,1.34,0,1.74A2.92,2.92,0,0,1,164.16,345Z" style="fill:#fff"></path><path d="M249,309a7.79,7.79,0,0,1-1.74,1.5,25.43,25.43,0,0,1-4.82,2.76,25.92,25.92,0,0,1-5.29,1.68,7.28,7.28,0,0,1-2.28.26,63,63,0,0,0,7.36-2.42A62.8,62.8,0,0,0,249,309Z" style="fill:#fff"></path><path d="M131.52,283.94a4.3,4.3,0,0,1-.59,1.81,11.16,11.16,0,0,1-7,5.75,4.77,4.77,0,0,1-1.9.24,14.4,14.4,0,0,1,1.79-.59,13,13,0,0,0,3.86-2.19,13.26,13.26,0,0,0,2.88-3.38A16.16,16.16,0,0,1,131.52,283.94Z" style="fill:#fff"></path><path d="M133.69,276.3a2.15,2.15,0,0,1-.22.45c-.16.29-.38.72-.73,1.25a31,31,0,0,1-3.22,4.21,33.08,33.08,0,0,1-32,10.14,30.47,30.47,0,0,1-5.06-1.59,13.35,13.35,0,0,1-1.31-.59c-.3-.15-.45-.23-.44-.25s.65.23,1.82.65A33.84,33.84,0,0,0,129.25,282a35.4,35.4,0,0,0,3.32-4.08A15.86,15.86,0,0,1,133.69,276.3Z" style="fill:#263238"></path><path d="M252.33,129.37c-1.31,1.54-5.6,0-9.57-3.34s-6.13-7.38-4.82-8.92,5.6,0,9.57,3.34S253.64,127.83,252.33,129.37Z" style="fill:#263238"></path></g></svg>
